<svg width="1861" height="177" viewBox="0 0 1861 177" fill="none" xmlns="http://www.w3.org/2000/svg">
<path d="M2.664 69V0.359997H50.952V10.632H14.568V28.968H44.712V38.664H14.568V69H2.664ZM84.144 70.728C64.656 70.728 55.824 60.168 55.824 43.368V0.359997H67.728V42.504C67.728 55.848 72.912 60.456 84.24 60.456C95.664 60.456 100.752 56.04 100.752 42.6V0.359997H112.656V43.176C112.656 60.072 103.92 70.728 84.144 70.728ZM120.14 69V0.359997H133.868L167.18 52.296H167.276V0.359997H178.604V69H165.74L131.66 15.816H131.564V69H120.14ZM186.144 69V0.359997H210.144C228 0.359997 244.608 10.152 244.608 34.536C244.608 58.824 228.096 69 209.28 69H186.144ZM198.048 58.632H211.2C225.12 58.632 232.608 51.048 232.608 34.536C232.608 18.024 225.312 10.728 211.296 10.728H198.048V58.632ZM241.551 69L267.183 0.359997H281.967L307.599 69H295.215L289.071 51.912H259.791L253.551 69H241.551ZM263.535 41.736H285.423L274.575 11.592H274.479L263.535 41.736ZM310.933 69L311.221 0.359997H328.021L347.989 56.04L367.765 0.359997H384.469L384.757 69H373.333V25.8C373.333 23.208 373.429 20.52 373.525 14.184H373.429L353.461 69H342.133L322.261 14.472H322.165C322.357 20.616 322.453 23.4 322.453 25.992V69H310.933ZM392.218 69V0.359997H441.466V10.632H404.122V28.968H435.898V38.664H404.122V58.728H441.466V69H392.218ZM448.096 69V0.359997H461.824L495.136 52.296H495.232V0.359997H506.56V69H493.696L459.616 15.816H459.52V69H448.096ZM533.204 69V11.112H510.548V0.359997H567.668V11.112H545.012V69H533.204ZM558.164 69L583.796 0.359997H598.58L624.212 69H611.828L605.684 51.912H576.404L570.164 69H558.164ZM580.148 41.736H602.036L591.188 11.592H591.092L580.148 41.736ZM627.545 69V0.359997H639.449V58.44H671.705V69H627.545ZM696.689 70.248C682.385 70.248 672.305 59.688 672.305 44.232C672.305 28.776 682.385 18.6 697.553 18.6C709.745 18.6 717.617 25.128 719.249 36.648H708.593C707.441 30.888 703.409 27.72 697.169 27.72C688.337 27.72 683.729 33.672 683.729 44.328C683.729 54.984 688.337 61.032 696.977 61.032C703.409 61.032 707.441 57.384 708.689 51.144H719.441C718.001 62.568 709.169 70.248 696.689 70.248ZM748.084 70.248C733.396 70.248 723.028 59.688 723.028 44.424C723.028 29.064 733.396 18.6 748.18 18.6C762.676 18.6 772.948 29.256 772.948 44.52C772.948 59.784 762.676 70.248 748.084 70.248ZM748.276 61.128C756.82 61.128 761.62 55.656 761.62 44.424C761.62 33.192 756.82 27.72 748.18 27.72C739.444 27.72 734.452 33.192 734.452 44.328C734.452 55.656 739.444 61.128 748.276 61.128ZM800.515 69V19.848H811.747V69H800.515ZM799.651 11.88V0.647999H812.227V11.88H799.651ZM838.115 70.248C825.443 70.248 817.667 64.392 815.939 53.928H826.691C827.555 58.92 831.779 61.896 838.595 61.896C845.411 61.896 848.675 59.592 848.675 55.464C848.675 51.816 846.467 49.8 840.131 48.552L832.451 47.112C822.659 45.288 817.667 40.296 817.667 33.48C817.667 24.552 825.251 18.6 837.827 18.6C849.443 18.6 857.123 24.456 858.659 34.152H848.291C847.523 29.256 844.067 26.76 837.539 26.76C831.011 26.76 828.035 28.872 828.035 32.616C828.035 35.784 830.051 37.608 836.291 38.856L844.067 40.392C853.571 42.216 859.043 47.304 859.043 55.08C859.043 64.392 850.883 70.248 838.115 70.248ZM902.327 70.344C892.535 70.344 885.815 64.392 885.815 55.752C885.815 51.336 887.543 47.496 890.615 45C893.687 42.504 898.775 40.776 905.495 39.912L915.575 38.664C918.647 38.184 920.087 36.936 920.087 33.96C920.087 29.448 916.919 27.048 910.007 27.048C902.903 27.048 899.543 29.928 898.871 35.304H887.639C889.079 24.84 897.335 18.6 910.295 18.6C923.543 18.6 930.167 24.936 930.167 37.608V56.232C930.167 59.016 931.031 59.976 933.143 59.976H935.927V69H928.631C924.023 69 921.143 65.256 920.951 59.496C918.071 66.12 910.871 70.344 902.327 70.344ZM905.111 61.704C915.287 61.704 919.703 55.56 919.703 48.84V45.288C914.807 45.672 910.679 46.056 906.839 46.728C898.967 47.976 896.663 50.664 896.663 54.696C896.663 59.304 899.351 61.704 905.111 61.704ZM940.781 69V19.848H949.997L951.149 27.048C954.221 21.48 959.309 18.6 967.277 18.6C979.853 18.6 984.941 25.8 984.941 39.624V69H973.709V40.2C973.709 31.368 970.829 27.912 963.533 27.912C955.181 27.912 952.013 32.712 952.013 43.08V69H940.781ZM1014.29 69V19.848H1025.52V69H1014.29ZM1013.42 11.88V0.647999H1026V11.88H1013.42ZM1031.82 69V19.848H1041.04L1042.19 27.048C1045.26 21.48 1050.35 18.6 1058.32 18.6C1070.89 18.6 1075.98 25.8 1075.98 39.624V69H1064.75V40.2C1064.75 31.368 1061.87 27.912 1054.57 27.912C1046.22 27.912 1043.05 32.712 1043.05 43.08V69H1031.82ZM1102.33 70.152C1091.38 70.152 1080.53 61.224 1080.53 44.424C1080.53 27.624 1091.29 18.504 1102.33 18.504C1110.01 18.504 1114.9 22.632 1117.88 26.76V0.359997H1129.11V69H1119.8L1118.65 60.648C1115.86 66.024 1109.81 70.152 1102.33 70.152ZM1104.73 60.936C1113.17 60.936 1118.07 55.272 1118.07 44.136C1118.07 33.096 1113.27 27.528 1104.73 27.528C1096.57 27.528 1092.05 33.192 1092.05 44.232C1092.05 55.272 1096.57 60.936 1104.73 60.936ZM1158.56 70.248C1143.39 70.248 1133.6 59.88 1133.6 44.328C1133.6 28.776 1143.3 18.6 1158.08 18.6C1172.77 18.6 1181.7 28.296 1181.7 44.424V47.4H1144.74C1145.22 56.616 1150.02 61.704 1158.46 61.704C1164.32 61.704 1168.06 59.112 1169.5 54.696H1180.16C1178.05 64.296 1170.08 70.248 1158.56 70.248ZM1144.83 39.816H1170.66C1170.08 30.984 1166.24 27.048 1157.89 27.048C1149.63 27.048 1145.6 31.08 1144.83 39.816ZM1186.52 88.2V19.848H1195.74L1196.89 28.2C1199.87 22.344 1206.2 18.696 1213.4 18.696C1225.4 18.696 1235 28.968 1235 44.424C1235 60.168 1225.4 70.344 1213.21 70.344C1206.78 70.344 1201.31 67.368 1197.75 62.28V88.2H1186.52ZM1210.71 61.128C1219.07 61.128 1223.58 55.368 1223.58 44.328C1223.58 33.288 1219.16 27.72 1210.81 27.72C1202.36 27.72 1197.47 33.48 1197.47 44.424C1197.47 55.464 1202.46 61.128 1210.71 61.128ZM1262.63 70.248C1247.46 70.248 1237.67 59.88 1237.67 44.328C1237.67 28.776 1247.37 18.6 1262.15 18.6C1276.84 18.6 1285.77 28.296 1285.77 44.424V47.4H1248.81C1249.29 56.616 1254.09 61.704 1262.53 61.704C1268.39 61.704 1272.13 59.112 1273.57 54.696H1284.23C1282.12 64.296 1274.15 70.248 1262.63 70.248ZM1248.9 39.816H1274.73C1274.15 30.984 1270.31 27.048 1261.96 27.048C1253.7 27.048 1249.67 31.08 1248.9 39.816ZM1290.59 69V19.848H1299.81L1300.96 27.048C1304.03 21.48 1309.12 18.6 1317.09 18.6C1329.66 18.6 1334.75 25.8 1334.75 39.624V69H1323.52V40.2C1323.52 31.368 1320.64 27.912 1313.34 27.912C1304.99 27.912 1301.82 32.712 1301.82 43.08V69H1290.59ZM1361.09 70.152C1350.15 70.152 1339.3 61.224 1339.3 44.424C1339.3 27.624 1350.05 18.504 1361.09 18.504C1368.77 18.504 1373.67 22.632 1376.65 26.76V0.359997H1387.88V69H1378.57L1377.41 60.648C1374.63 66.024 1368.58 70.152 1361.09 70.152ZM1363.49 60.936C1371.94 60.936 1376.84 55.272 1376.84 44.136C1376.84 33.096 1372.04 27.528 1363.49 27.528C1355.33 27.528 1350.82 33.192 1350.82 44.232C1350.82 55.272 1355.33 60.936 1363.49 60.936ZM1417.33 70.248C1402.16 70.248 1392.37 59.88 1392.37 44.328C1392.37 28.776 1402.06 18.6 1416.85 18.6C1431.54 18.6 1440.46 28.296 1440.46 44.424V47.4H1403.5C1403.98 56.616 1408.78 61.704 1417.23 61.704C1423.09 61.704 1426.83 59.112 1428.27 54.696H1438.93C1436.82 64.296 1428.85 70.248 1417.33 70.248ZM1403.6 39.816H1429.42C1428.85 30.984 1425.01 27.048 1416.66 27.048C1408.4 27.048 1404.37 31.08 1403.6 39.816ZM1445.29 69V19.848H1454.51L1455.66 27.048C1458.73 21.48 1463.82 18.6 1471.79 18.6C1484.36 18.6 1489.45 25.8 1489.45 39.624V69H1478.22V40.2C1478.22 31.368 1475.34 27.912 1468.04 27.912C1459.69 27.912 1456.52 32.712 1456.52 43.08V69H1445.29ZM1515.33 69.864C1506.12 69.864 1501.12 65.64 1501.12 56.52V28.68H1492.29V19.848H1495.75C1499.11 19.848 1501.51 17.544 1501.51 14.184V6.984H1512.16V19.848H1524.36V28.68H1512.16V54.696C1512.16 58.92 1513.7 60.648 1517.73 60.648C1519.36 60.648 1521.67 60.552 1524.36 60.168V69C1521.86 69.48 1518.12 69.864 1515.33 69.864ZM1567.2 69L1542.62 0.359997H1555.1L1574.78 57.768H1574.88L1594.56 0.359997H1606.85L1582.27 69H1567.2ZM1617.04 70.344C1607.25 70.344 1600.53 64.392 1600.53 55.752C1600.53 51.336 1602.26 47.496 1605.33 45C1608.4 42.504 1613.49 40.776 1620.21 39.912L1630.29 38.664C1633.36 38.184 1634.8 36.936 1634.8 33.96C1634.8 29.448 1631.63 27.048 1624.72 27.048C1617.62 27.048 1614.26 29.928 1613.59 35.304H1602.35C1603.79 24.84 1612.05 18.6 1625.01 18.6C1638.26 18.6 1644.88 24.936 1644.88 37.608V56.232C1644.88 59.016 1645.75 59.976 1647.86 59.976H1650.64V69H1643.35C1638.74 69 1635.86 65.256 1635.67 59.496C1632.79 66.12 1625.59 70.344 1617.04 70.344ZM1619.83 61.704C1630 61.704 1634.42 55.56 1634.42 48.84V45.288C1629.52 45.672 1625.39 46.056 1621.55 46.728C1613.68 47.976 1611.38 50.664 1611.38 54.696C1611.38 59.304 1614.07 61.704 1619.83 61.704ZM1655.5 69V0.359997H1666.73V69H1655.5ZM1690.7 70.248C1678.12 70.248 1673.03 63.144 1673.03 48.84V19.848H1684.26V48.456C1684.26 57.384 1687.14 60.936 1694.44 60.936C1702.31 60.936 1705.96 56.424 1705.96 46.344V19.848H1717.19V69H1707.98L1706.82 61.896C1703.66 67.368 1698.66 70.248 1690.7 70.248ZM1746.7 70.248C1731.53 70.248 1721.74 59.88 1721.74 44.328C1721.74 28.776 1731.44 18.6 1746.22 18.6C1760.91 18.6 1769.84 28.296 1769.84 44.424V47.4H1732.88C1733.36 56.616 1738.16 61.704 1746.61 61.704C1752.46 61.704 1756.21 59.112 1757.65 54.696H1768.3C1766.19 64.296 1758.22 70.248 1746.7 70.248ZM1732.97 39.816H1758.8C1758.22 30.984 1754.38 27.048 1746.03 27.048C1737.77 27.048 1733.74 31.08 1732.97 39.816ZM33.288 158.728C13.32 158.728 0.648 144.424 0.648 122.632C0.648 100.84 13.32 86.632 33.384 86.632C49.32 86.632 60.264 95.752 63.048 111.496H50.856C49.032 101.992 43.176 97.096 33.384 97.096C19.656 97.096 12.936 105.928 12.936 122.632C12.936 139.336 19.848 148.264 33.48 148.264C43.368 148.264 49.224 143.08 50.952 133.192H63.144C60.456 149.32 49.416 158.728 33.288 158.728ZM69.5918 157V107.848H78.9038L80.0558 116.2C81.6878 111.784 85.6238 107.464 91.4798 107.464C93.3998 107.464 95.4158 107.56 97.2398 107.752V117.736C95.3198 117.544 92.8238 117.544 90.9998 117.544C85.1438 117.544 80.9198 121.864 80.9198 132.04V157H69.5918ZM122.169 158.248C107.001 158.248 97.209 147.88 97.209 132.328C97.209 116.776 106.905 106.6 121.689 106.6C136.377 106.6 145.305 116.296 145.305 132.424V135.4H108.345C108.825 144.616 113.625 149.704 122.073 149.704C127.929 149.704 131.673 147.112 133.113 142.696H143.769C141.657 152.296 133.689 158.248 122.169 158.248ZM108.441 127.816H134.265C133.689 118.984 129.849 115.048 121.497 115.048C113.241 115.048 109.209 119.08 108.441 127.816ZM165.586 158.344C155.794 158.344 149.074 152.392 149.074 143.752C149.074 139.336 150.802 135.496 153.874 133C156.946 130.504 162.034 128.776 168.754 127.912L178.834 126.664C181.906 126.184 183.346 124.936 183.346 121.96C183.346 117.448 180.178 115.048 173.266 115.048C166.162 115.048 162.802 117.928 162.13 123.304H150.898C152.338 112.84 160.594 106.6 173.554 106.6C186.802 106.6 193.426 112.936 193.426 125.608V144.232C193.426 147.016 194.29 147.976 196.402 147.976H199.186V157H191.89C187.282 157 184.402 153.256 184.21 147.496C181.33 154.12 174.13 158.344 165.586 158.344ZM168.37 149.704C178.546 149.704 182.962 143.56 182.962 136.84V133.288C178.066 133.672 173.938 134.056 170.098 134.728C162.226 135.976 159.922 138.664 159.922 142.696C159.922 147.304 162.61 149.704 168.37 149.704ZM219.984 157.864C210.768 157.864 205.776 153.64 205.776 144.52V116.68H196.944V107.848H200.4C203.76 107.848 206.16 105.544 206.16 102.184V94.984H216.816V107.848H229.008V116.68H216.816V142.696C216.816 146.92 218.352 148.648 222.384 148.648C224.016 148.648 226.32 148.552 229.008 148.168V157C226.512 157.48 222.768 157.864 219.984 157.864ZM232.638 157V107.848H243.87V157H232.638ZM231.774 99.88V88.648H244.35V99.88H231.774ZM273.405 158.248C258.717 158.248 248.349 147.688 248.349 132.424C248.349 117.064 258.717 106.6 273.501 106.6C287.997 106.6 298.269 117.256 298.269 132.52C298.269 147.784 287.997 158.248 273.405 158.248ZM273.597 149.128C282.141 149.128 286.941 143.656 286.941 132.424C286.941 121.192 282.141 115.72 273.501 115.72C264.765 115.72 259.773 121.192 259.773 132.328C259.773 143.656 264.765 149.128 273.597 149.128ZM302.864 157V107.848H312.08L313.232 115.048C316.304 109.48 321.392 106.6 329.36 106.6C341.936 106.6 347.024 113.8 347.024 127.624V157H335.792V128.2C335.792 119.368 332.912 115.912 325.616 115.912C317.264 115.912 314.096 120.712 314.096 131.08V157H302.864ZM407.572 158.728C387.604 158.728 374.932 144.424 374.932 122.632C374.932 100.84 387.604 86.632 407.668 86.632C423.604 86.632 434.548 95.752 437.332 111.496H425.14C423.316 101.992 417.46 97.096 407.668 97.096C393.94 97.096 387.22 105.928 387.22 122.632C387.22 139.336 394.132 148.264 407.764 148.264C417.652 148.264 423.508 143.08 425.236 133.192H437.428C434.74 149.32 423.7 158.728 407.572 158.728ZM465.701 158.248C451.013 158.248 440.645 147.688 440.645 132.424C440.645 117.064 451.013 106.6 465.797 106.6C480.293 106.6 490.565 117.256 490.565 132.52C490.565 147.784 480.293 158.248 465.701 158.248ZM465.893 149.128C474.437 149.128 479.237 143.656 479.237 132.424C479.237 121.192 474.437 115.72 465.797 115.72C457.061 115.72 452.069 121.192 452.069 132.328C452.069 143.656 457.061 149.128 465.893 149.128ZM495.161 157V107.848H504.377L505.529 115.144C508.409 109.768 513.785 106.6 520.121 106.6C526.841 106.6 531.929 110.152 534.329 116.296C537.305 110.152 542.969 106.6 549.977 106.6C560.441 106.6 566.009 113.32 566.009 126.856V157H554.777V127.24C554.777 119.464 552.185 115.912 546.137 115.912C539.129 115.912 536.153 120.616 536.153 130.984V157H525.017V127.24C525.017 119.464 522.329 115.912 516.185 115.912C509.273 115.912 506.393 120.616 506.393 131.176V157H495.161ZM572.32 176.2V107.848H581.536L582.688 116.2C585.664 110.344 592 106.696 599.2 106.696C611.2 106.696 620.8 116.968 620.8 132.424C620.8 148.168 611.2 158.344 599.008 158.344C592.576 158.344 587.104 155.368 583.552 150.28V176.2H572.32ZM596.512 149.128C604.864 149.128 609.376 143.368 609.376 132.328C609.376 121.288 604.96 115.72 596.608 115.72C588.16 115.72 583.264 121.48 583.264 132.424C583.264 143.464 588.256 149.128 596.512 149.128ZM640.468 158.344C630.676 158.344 623.956 152.392 623.956 143.752C623.956 139.336 625.684 135.496 628.756 133C631.828 130.504 636.916 128.776 643.636 127.912L653.716 126.664C656.788 126.184 658.228 124.936 658.228 121.96C658.228 117.448 655.06 115.048 648.148 115.048C641.044 115.048 637.684 117.928 637.012 123.304H625.78C627.22 112.84 635.476 106.6 648.436 106.6C661.684 106.6 668.308 112.936 668.308 125.608V144.232C668.308 147.016 669.172 147.976 671.284 147.976H674.068V157H666.772C662.164 157 659.284 153.256 659.092 147.496C656.212 154.12 649.012 158.344 640.468 158.344ZM643.252 149.704C653.428 149.704 657.844 143.56 657.844 136.84V133.288C652.948 133.672 648.82 134.056 644.98 134.728C637.108 135.976 634.804 138.664 634.804 142.696C634.804 147.304 637.492 149.704 643.252 149.704ZM678.922 157V107.848H688.138L689.29 115.048C692.362 109.48 697.45 106.6 705.418 106.6C717.994 106.6 723.082 113.8 723.082 127.624V157H711.85V128.2C711.85 119.368 708.97 115.912 701.674 115.912C693.322 115.912 690.154 120.712 690.154 131.08V157H678.922ZM734.951 176.872C731.591 176.872 729.095 176.584 727.079 176.2V167.368C730.343 167.656 732.935 167.656 734.471 167.656C738.119 167.656 739.943 165.736 741.575 161.896L744.359 154.792L724.775 107.848H736.391L749.831 142.024H749.927L763.463 107.848H774.695L750.983 164.296C747.431 172.84 742.247 176.872 734.951 176.872ZM770.789 171.784L768.965 165.64C772.901 164.584 775.301 161.32 775.301 157H768.005V143.368H783.173V156.328C783.173 161.32 781.925 165.256 779.333 167.656C777.509 169.48 774.821 170.824 770.789 171.784ZM835.653 158.248C821.349 158.248 811.269 147.688 811.269 132.232C811.269 116.776 821.349 106.6 836.517 106.6C848.709 106.6 856.581 113.128 858.213 124.648H847.557C846.405 118.888 842.373 115.72 836.133 115.72C827.301 115.72 822.693 121.672 822.693 132.328C822.693 142.984 827.301 149.032 835.941 149.032C842.373 149.032 846.405 145.384 847.653 139.144H858.405C856.965 150.568 848.133 158.248 835.653 158.248ZM879.271 158.344C869.479 158.344 862.759 152.392 862.759 143.752C862.759 139.336 864.487 135.496 867.559 133C870.631 130.504 875.719 128.776 882.439 127.912L892.519 126.664C895.591 126.184 897.031 124.936 897.031 121.96C897.031 117.448 893.863 115.048 886.951 115.048C879.847 115.048 876.487 117.928 875.815 123.304H864.583C866.023 112.84 874.279 106.6 887.239 106.6C900.487 106.6 907.111 112.936 907.111 125.608V144.232C907.111 147.016 907.975 147.976 910.087 147.976H912.871V157H905.575C900.967 157 898.087 153.256 897.895 147.496C895.015 154.12 887.815 158.344 879.271 158.344ZM882.055 149.704C892.231 149.704 896.647 143.56 896.647 136.84V133.288C891.751 133.672 887.623 134.056 883.783 134.728C875.911 135.976 873.607 138.664 873.607 142.696C873.607 147.304 876.295 149.704 882.055 149.704ZM917.726 157V107.848H927.038L928.19 116.2C929.822 111.784 933.758 107.464 939.614 107.464C941.534 107.464 943.55 107.56 945.374 107.752V117.736C943.454 117.544 940.958 117.544 939.134 117.544C933.278 117.544 929.054 121.864 929.054 132.04V157H917.726ZM963.243 157L945.579 107.848H957.867L970.251 147.112H970.347L982.923 107.848H994.635L977.163 157H963.243ZM1018.21 158.248C1003.04 158.248 993.253 147.88 993.253 132.328C993.253 116.776 1002.95 106.6 1017.73 106.6C1032.42 106.6 1041.35 116.296 1041.35 132.424V135.4H1004.39C1004.87 144.616 1009.67 149.704 1018.12 149.704C1023.97 149.704 1027.72 147.112 1029.16 142.696H1039.81C1037.7 152.296 1029.73 158.248 1018.21 158.248ZM1004.48 127.816H1030.31C1029.73 118.984 1025.89 115.048 1017.54 115.048C1009.28 115.048 1005.25 119.08 1004.48 127.816ZM1066.14 158.152C1055.2 158.152 1044.35 149.224 1044.35 132.424C1044.35 115.624 1055.1 106.504 1066.14 106.504C1073.82 106.504 1078.72 110.632 1081.69 114.76V88.36H1092.93V157H1083.61L1082.46 148.648C1079.68 154.024 1073.63 158.152 1066.14 158.152ZM1068.54 148.936C1076.99 148.936 1081.89 143.272 1081.89 132.136C1081.89 121.096 1077.09 115.528 1068.54 115.528C1060.38 115.528 1055.87 121.192 1055.87 132.232C1055.87 143.272 1060.38 148.936 1068.54 148.936ZM1145.45 158.248C1130.76 158.248 1120.39 147.688 1120.39 132.424C1120.39 117.064 1130.76 106.6 1145.54 106.6C1160.04 106.6 1170.31 117.256 1170.31 132.52C1170.31 147.784 1160.04 158.248 1145.45 158.248ZM1145.64 149.128C1154.18 149.128 1158.98 143.656 1158.98 132.424C1158.98 121.192 1154.18 115.72 1145.54 115.72C1136.81 115.72 1131.81 121.192 1131.81 132.328C1131.81 143.656 1136.81 149.128 1145.64 149.128ZM1192.57 158.248C1179.99 158.248 1174.9 151.144 1174.9 136.84V107.848H1186.14V136.456C1186.14 145.384 1189.02 148.936 1196.31 148.936C1204.18 148.936 1207.83 144.424 1207.83 134.344V107.848H1219.06V157H1209.85L1208.7 149.896C1205.53 155.368 1200.54 158.248 1192.57 158.248ZM1245.7 157.864C1236.48 157.864 1231.49 153.64 1231.49 144.52V116.68H1222.66V107.848H1226.11C1229.47 107.848 1231.87 105.544 1231.87 102.184V94.984H1242.53V107.848H1254.72V116.68H1242.53V142.696C1242.53 146.92 1244.06 148.648 1248.1 148.648C1249.73 148.648 1252.03 148.552 1254.72 148.168V157C1252.22 157.48 1248.48 157.864 1245.7 157.864ZM1304.55 158.248C1289.87 158.248 1279.5 147.688 1279.5 132.424C1279.5 117.064 1289.87 106.6 1304.65 106.6C1319.15 106.6 1329.42 117.256 1329.42 132.52C1329.42 147.784 1319.15 158.248 1304.55 158.248ZM1304.75 149.128C1313.29 149.128 1318.09 143.656 1318.09 132.424C1318.09 121.192 1313.29 115.72 1304.65 115.72C1295.91 115.72 1290.92 121.192 1290.92 132.328C1290.92 143.656 1295.91 149.128 1304.75 149.128ZM1339.88 157V116.776H1330.67V107.848H1339.88V100.36C1339.88 91.912 1344.78 86.632 1355.05 86.632C1357.93 86.632 1361.2 86.92 1363.6 87.208V96.04C1361.29 95.848 1357.93 95.752 1356.4 95.752C1352.08 95.752 1350.64 97.384 1350.64 101.896V107.848H1362.92V116.776H1351.02V157H1339.88ZM1387.75 157V88.36H1417.7C1432.1 88.36 1440.07 94.6 1440.07 105.064C1440.07 111.976 1436.33 117.352 1430.38 119.848C1437.77 122.728 1441.7 128.968 1441.7 137.704C1441.7 149.896 1433.93 157 1418.09 157H1387.75ZM1399.66 147.304H1418.57C1426.44 147.304 1430.28 143.848 1430.28 136.456C1430.28 129.064 1426.54 125.608 1418.76 125.608H1399.66V147.304ZM1399.66 116.488H1418.47C1425.58 116.488 1428.94 113.512 1428.94 107.08C1428.94 100.648 1425.77 97.864 1418.66 97.864H1399.66V116.488ZM1446.62 157V88.36H1457.85V157H1446.62ZM1479.61 158.344C1469.82 158.344 1463.1 152.392 1463.1 143.752C1463.1 139.336 1464.83 135.496 1467.9 133C1470.97 130.504 1476.06 128.776 1482.78 127.912L1492.86 126.664C1495.93 126.184 1497.37 124.936 1497.37 121.96C1497.37 117.448 1494.2 115.048 1487.29 115.048C1480.19 115.048 1476.83 117.928 1476.15 123.304H1464.92C1466.36 112.84 1474.62 106.6 1487.58 106.6C1500.83 106.6 1507.45 112.936 1507.45 125.608V144.232C1507.45 147.016 1508.31 147.976 1510.43 147.976H1513.21V157H1505.91C1501.31 157 1498.43 153.256 1498.23 147.496C1495.35 154.12 1488.15 158.344 1479.61 158.344ZM1482.39 149.704C1492.57 149.704 1496.99 143.56 1496.99 136.84V133.288C1492.09 133.672 1487.96 134.056 1484.12 134.728C1476.25 135.976 1473.95 138.664 1473.95 142.696C1473.95 147.304 1476.63 149.704 1482.39 149.704ZM1538.84 158.248C1524.54 158.248 1514.46 147.688 1514.46 132.232C1514.46 116.776 1524.54 106.6 1539.71 106.6C1551.9 106.6 1559.77 113.128 1561.4 124.648H1550.75C1549.59 118.888 1545.56 115.72 1539.32 115.72C1530.49 115.72 1525.88 121.672 1525.88 132.328C1525.88 142.984 1530.49 149.032 1539.13 149.032C1545.56 149.032 1549.59 145.384 1550.84 139.144H1561.59C1560.15 150.568 1551.32 158.248 1538.84 158.248ZM1567 157V88.36H1578.24V128.392L1600.8 107.848H1614.62L1593.6 126.76L1615.1 157H1602.04L1585.92 133.768L1578.24 140.68V157H1567ZM1635.73 158.248C1623.06 158.248 1615.28 152.392 1613.55 141.928H1624.3C1625.17 146.92 1629.39 149.896 1636.21 149.896C1643.02 149.896 1646.29 147.592 1646.29 143.464C1646.29 139.816 1644.08 137.8 1637.74 136.552L1630.06 135.112C1620.27 133.288 1615.28 128.296 1615.28 121.48C1615.28 112.552 1622.86 106.6 1635.44 106.6C1647.06 106.6 1654.74 112.456 1656.27 122.152H1645.9C1645.14 117.256 1641.68 114.76 1635.15 114.76C1628.62 114.76 1625.65 116.872 1625.65 120.616C1625.65 123.784 1627.66 125.608 1633.9 126.856L1641.68 128.392C1651.18 130.216 1656.66 135.304 1656.66 143.08C1656.66 152.392 1648.5 158.248 1635.73 158.248ZM1680.36 157.864C1671.15 157.864 1666.15 153.64 1666.15 144.52V116.68H1657.32V107.848H1660.78C1664.14 107.848 1666.54 105.544 1666.54 102.184V94.984H1677.19V107.848H1689.39V116.68H1677.19V142.696C1677.19 146.92 1678.73 148.648 1682.76 148.648C1684.39 148.648 1686.7 148.552 1689.39 148.168V157C1686.89 157.48 1683.15 157.864 1680.36 157.864ZM1714.84 158.248C1700.15 158.248 1689.79 147.688 1689.79 132.424C1689.79 117.064 1700.15 106.6 1714.94 106.6C1729.43 106.6 1739.71 117.256 1739.71 132.52C1739.71 147.784 1729.43 158.248 1714.84 158.248ZM1715.03 149.128C1723.58 149.128 1728.38 143.656 1728.38 132.424C1728.38 121.192 1723.58 115.72 1714.94 115.72C1706.2 115.72 1701.21 121.192 1701.21 132.328C1701.21 143.656 1706.2 149.128 1715.03 149.128ZM1744.3 157V107.848H1753.52L1754.67 115.048C1757.74 109.48 1762.83 106.6 1770.8 106.6C1783.37 106.6 1788.46 113.8 1788.46 127.624V157H1777.23V128.2C1777.23 119.368 1774.35 115.912 1767.05 115.912C1758.7 115.912 1755.53 120.712 1755.53 131.08V157H1744.3ZM1817.97 158.248C1802.8 158.248 1793.01 147.88 1793.01 132.328C1793.01 116.776 1802.71 106.6 1817.49 106.6C1832.18 106.6 1841.11 116.296 1841.11 132.424V135.4H1804.15C1804.63 144.616 1809.43 149.704 1817.88 149.704C1823.73 149.704 1827.48 147.112 1828.92 142.696H1839.57C1837.46 152.296 1829.49 158.248 1817.97 158.248ZM1804.24 127.816H1830.07C1829.49 118.984 1825.65 115.048 1817.3 115.048C1809.04 115.048 1805.01 119.08 1804.24 127.816ZM1845.57 157V143.368H1860.26V157H1845.57Z" fill="black"/>
</svg>
