<svg width="1920" height="1080" viewBox="0 0 1920 1080" fill="none" xmlns="http://www.w3.org/2000/svg">
<g clip-path="url(#clip0_690_2333)">
<rect width="1920" height="1080" fill="white"/>
<path d="M16.1201 16.2344H144.977V43.7001H47.8829V92.7337H128.3V118.65H47.8829V199.712H16.1201V16.2344Z" fill="black"/>
<path d="M153.101 131.22V16.2344H184.863V128.895C184.863 164.541 198.703 176.896 228.919 176.896C259.134 176.896 272.974 165.1 272.974 129.154V16.2344H304.737V130.66C304.737 175.82 281.441 204.319 228.661 204.319C175.88 204.319 153.101 176.078 153.101 131.177V131.22Z" fill="black"/>
<path d="M312.172 16.2344H348.792L437.719 155.07H437.934V16.2344H468.192V199.712H433.851L342.903 57.5621H342.645V199.712H312.172V16.2344Z" fill="black"/>
<path d="M539.927 16.2384H475.886V199.673H537.606C587.808 199.673 631.863 172.466 631.863 107.547C631.863 42.6278 587.55 16.1953 539.884 16.1953L539.927 16.2384ZM542.721 171.992H507.606V43.9624H542.979C580.372 43.9624 599.842 63.4639 599.842 107.59C599.842 151.716 579.856 171.992 542.721 171.992Z" fill="black"/>
<path d="M721.307 16.2344H681.85L613.468 199.669H645.488L662.122 153.993H740.261L756.637 199.669H789.689L721.307 16.2344ZM672.094 126.829L701.278 46.2831H701.535L730.462 126.829H672.051H672.094Z" fill="black"/>
<path d="M794.288 16.2344H839.117L892.414 165.057L945.194 16.2344H989.765L990.539 199.669H960.065V84.2099C960.065 77.2789 960.323 70.0896 960.581 53.171H960.323L907.027 199.669H876.811L823.773 53.9459H823.515C824.031 70.3479 824.289 77.7955 824.289 84.7265V199.669H793.558L794.331 16.2344H794.288Z" fill="black"/>
<path d="M997.975 16.2344H1129.37V43.7001H1029.74V92.7337H1114.5V118.65H1029.74V172.246H1129.37V199.712H997.975V16.2344Z" fill="black"/>
<path d="M1136.8 16.2344H1173.42L1262.31 155.07H1262.56V16.2344H1292.82V199.712H1258.48L1167.53 57.5621H1167.28V199.712H1136.8V16.2344Z" fill="black"/>
<path d="M1360.43 44.9916H1300V16.2344H1452.41V44.9916H1391.94V199.712H1360.43V44.9916Z" fill="black"/>
<path d="M1519.76 16.2344H1480.31L1411.92 199.669H1443.94L1460.58 153.993H1538.72L1555.09 199.669H1588.14L1519.76 16.2344ZM1470.59 126.829L1499.78 46.2831H1500.03L1528.96 126.829H1470.55H1470.59Z" fill="black"/>
<path d="M1594.85 16.2344H1626.61V171.472H1712.66V199.712H1594.85V16.2344Z" fill="black"/>
<path d="M1644.5 81.5429C1644.5 40.2151 1671.41 13.0508 1711.85 13.0508C1744.39 13.0508 1765.4 30.4859 1769.75 61.2664H1741.29C1738.2 45.8546 1727.45 37.4169 1710.82 37.4169C1687.26 37.4169 1674.97 53.3453 1674.97 81.8012C1674.97 110.257 1687.26 126.444 1710.3 126.444C1727.45 126.444 1738.24 116.714 1741.55 100.011H1770.26C1766.44 130.533 1742.84 151.068 1709.53 151.068C1671.36 151.068 1644.46 122.828 1644.46 81.5429H1644.5Z" fill="black"/>
<path d="M1841.78 13.0508C1802.33 13.0508 1774.65 41.0331 1774.65 82.0594C1774.65 123.086 1802.33 151.068 1841.52 151.068C1880.72 151.068 1907.89 123.086 1907.89 82.3178C1907.89 41.5497 1880.46 13.0508 1841.78 13.0508ZM1842.04 126.702C1818.49 126.702 1805.16 112.065 1805.16 81.8012C1805.16 51.5372 1818.49 37.4169 1841.78 37.4169C1865.08 37.4169 1877.63 52.0538 1877.63 82.0594C1877.63 112.065 1864.82 126.702 1842.04 126.702Z" fill="black"/>
<line y1="216.5" x2="1920" y2="216.5" stroke="black"/>
<line y1="312.5" x2="1920" y2="312.5" stroke="black"/>
<line y1="408.5" x2="1920" y2="408.5" stroke="black"/>
<line y1="504.5" x2="1920" y2="504.5" stroke="black"/>
<line y1="600.5" x2="1920" y2="600.5" stroke="black"/>
<line y1="696.5" x2="1920" y2="696.5" stroke="black"/>
<line y1="792.5" x2="1920" y2="792.5" stroke="black"/>
<line y1="888.5" x2="1920" y2="888.5" stroke="black"/>
<line y1="984.5" x2="1920" y2="984.5" stroke="black"/>
<line x1="95.5" y1="1081" x2="95.5" y2="217" stroke="black"/>
<line x1="191.5" y1="1081" x2="191.5" y2="217" stroke="black"/>
<line x1="287.5" y1="1081" x2="287.5" y2="217" stroke="black"/>
<line x1="383.5" y1="1081" x2="383.5" y2="217" stroke="black"/>
<line x1="479.5" y1="1081" x2="479.5" y2="217" stroke="black"/>
<line x1="575.5" y1="1081" x2="575.5" y2="217" stroke="black"/>
<line x1="671.5" y1="1081" x2="671.5" y2="217" stroke="black"/>
<line x1="767.5" y1="1081" x2="767.5" y2="217" stroke="black"/>
<line x1="863.5" y1="1081" x2="863.5" y2="217" stroke="black"/>
<line x1="959.5" y1="1081" x2="959.5" y2="217" stroke="black"/>
<line x1="1055.5" y1="1081" x2="1055.5" y2="217" stroke="black"/>
<line x1="1151.5" y1="1081" x2="1151.5" y2="217" stroke="black"/>
<line x1="1247.5" y1="1081" x2="1247.5" y2="217" stroke="black"/>
<line x1="1343.5" y1="1081" x2="1343.5" y2="217" stroke="black"/>
<line x1="1439.5" y1="1081" x2="1439.5" y2="217" stroke="black"/>
<line x1="1535.5" y1="1081" x2="1535.5" y2="217" stroke="black"/>
<line x1="1631.5" y1="1081" x2="1631.5" y2="217" stroke="black"/>
<line x1="1727.5" y1="1081" x2="1727.5" y2="217" stroke="black"/>
<line x1="1823.5" y1="1081" x2="1823.5" y2="217" stroke="black"/>
<path d="M24.256 259V239.704H16.704V236.12H35.744V239.704H28.192V259H24.256ZM36.1023 259V242.616H39.2063L39.5903 245.4C40.1343 243.928 41.4463 242.488 43.3983 242.488C44.0383 242.488 44.7103 242.52 45.3183 242.584V245.912C44.6783 245.848 43.8463 245.848 43.2383 245.848C41.2863 245.848 39.8783 247.288 39.8783 250.68V259H36.1023ZM48.0398 259V242.616H51.7838V259H48.0398ZM47.7518 239.96V236.216H51.9438V239.96H47.7518ZM62.6848 259.416C57.9168 259.416 54.5568 255.896 54.5568 250.744C54.5568 245.592 57.9168 242.2 62.9728 242.2C67.0368 242.2 69.6608 244.376 70.2048 248.216H66.6528C66.2688 246.296 64.9248 245.24 62.8448 245.24C59.9008 245.24 58.3648 247.224 58.3648 250.776C58.3648 254.328 59.9008 256.344 62.7808 256.344C64.9248 256.344 66.2688 255.128 66.6848 253.048H70.2688C69.7888 256.856 66.8448 259.416 62.6848 259.416ZM81.0963 259.416C76.2003 259.416 72.7443 255.896 72.7443 250.808C72.7443 245.688 76.2003 242.2 81.1283 242.2C85.9603 242.2 89.3843 245.752 89.3843 250.84C89.3843 255.928 85.9603 259.416 81.0963 259.416ZM81.1603 256.376C84.0083 256.376 85.6083 254.552 85.6083 250.808C85.6083 247.064 84.0083 245.24 81.1283 245.24C78.2163 245.24 76.5523 247.064 76.5523 250.776C76.5523 254.552 78.2163 256.376 81.1603 256.376ZM92.196 259V242.616H95.268L95.652 245.016C96.676 243.16 98.372 242.2 101.028 242.2C105.22 242.2 106.916 244.6 106.916 249.208V259H103.172V249.4C103.172 246.456 102.212 245.304 99.78 245.304C96.996 245.304 95.94 246.904 95.94 250.36V259H92.196ZM111.441 263.928L110.833 261.88C112.145 261.528 112.945 260.44 112.945 259H110.513V254.456H115.569V258.776C115.569 260.44 115.153 261.752 114.289 262.552C113.681 263.16 112.785 263.608 111.441 263.928ZM128.294 259V236.12H138.406C143.558 236.12 146.47 238.616 146.47 242.68C146.47 245.816 144.902 247.96 142.534 248.728C144.454 248.952 145.478 250.104 145.638 251.96L145.99 256.248C146.086 257.464 146.246 258.232 146.534 258.776V259H142.534C142.374 258.584 142.214 257.944 142.15 257.016L141.83 252.728C141.67 250.936 140.87 250.136 139.238 250.136H132.262V259H128.294ZM132.262 246.904H138.566C141.446 246.904 142.534 245.592 142.534 243.032C142.534 240.632 141.734 239.48 139.366 239.48H132.262V246.904ZM157.315 259.416C152.419 259.416 148.963 255.896 148.963 250.808C148.963 245.688 152.419 242.2 157.347 242.2C162.179 242.2 165.603 245.752 165.603 250.84C165.603 255.928 162.179 259.416 157.315 259.416ZM157.379 256.376C160.227 256.376 161.827 254.552 161.827 250.808C161.827 247.064 160.227 245.24 157.347 245.24C154.435 245.24 152.771 247.064 152.771 250.776C152.771 254.552 154.435 256.376 157.379 256.376ZM174.303 259.416C170.111 259.416 168.415 257.048 168.415 252.28V242.616H172.159V252.152C172.159 255.128 173.119 256.312 175.551 256.312C178.175 256.312 179.391 254.808 179.391 251.448V242.616H183.135V259H180.063L179.679 256.632C178.623 258.456 176.959 259.416 174.303 259.416ZM186.54 259V242.616H189.612L189.996 245.016C191.02 243.16 192.716 242.2 195.372 242.2C199.564 242.2 201.26 244.6 201.26 249.208V259H197.516V249.4C197.516 246.456 196.556 245.304 194.124 245.304C191.34 245.304 190.284 246.904 190.284 250.36V259H186.54ZM211.321 259.384C207.673 259.384 204.057 256.408 204.057 250.808C204.057 245.208 207.641 242.168 211.321 242.168C213.881 242.168 215.513 243.544 216.505 244.92V236.12H220.249V259H217.145L216.761 256.216C215.833 258.008 213.817 259.384 211.321 259.384ZM212.121 256.312C214.937 256.312 216.569 254.424 216.569 250.712C216.569 247.032 214.969 245.176 212.121 245.176C209.401 245.176 207.897 247.064 207.897 250.744C207.897 254.424 209.401 256.312 212.121 256.312ZM238.619 259V243.32H233.179V240.408H235.003C237.851 240.408 238.939 239.352 238.939 237.016V236.12H242.363V259H238.619ZM257.482 259V236.12H265.482C271.434 236.12 276.97 239.384 276.97 247.512C276.97 255.608 271.466 259 265.194 259H257.482ZM261.45 255.544H265.834C270.474 255.544 272.97 253.016 272.97 247.512C272.97 242.008 270.538 239.576 265.866 239.576H261.45V255.544ZM287.595 259.416C282.54 259.416 279.276 255.96 279.276 250.776C279.276 245.592 282.508 242.2 287.436 242.2C292.332 242.2 295.308 245.432 295.308 250.808V251.8H282.988C283.148 254.872 284.748 256.568 287.564 256.568C289.516 256.568 290.764 255.704 291.244 254.232H294.796C294.092 257.432 291.436 259.416 287.595 259.416ZM283.02 249.272H291.628C291.436 246.328 290.156 245.016 287.372 245.016C284.62 245.016 283.276 246.36 283.02 249.272ZM304.728 259.416C300.504 259.416 297.912 257.464 297.336 253.976H300.92C301.208 255.64 302.616 256.632 304.888 256.632C307.16 256.632 308.248 255.864 308.248 254.488C308.248 253.272 307.512 252.6 305.4 252.184L302.84 251.704C299.576 251.096 297.912 249.432 297.912 247.16C297.912 244.184 300.44 242.2 304.632 242.2C308.504 242.2 311.064 244.152 311.576 247.384H308.12C307.864 245.752 306.712 244.92 304.536 244.92C302.36 244.92 301.368 245.624 301.368 246.872C301.368 247.928 302.04 248.536 304.12 248.952L306.712 249.464C309.88 250.072 311.704 251.768 311.704 254.36C311.704 257.464 308.984 259.416 304.728 259.416ZM314.602 259V242.616H318.346V259H314.602ZM314.314 239.96V236.216H318.506V239.96H314.314ZM329.119 265.688C324.991 265.688 322.271 263.768 321.759 260.44H325.503C325.823 262.008 326.911 262.776 329.247 262.776C332.703 262.776 333.791 260.888 333.791 257.656V255.864C333.023 257.784 330.847 259.064 328.319 259.064C324.159 259.064 321.183 255.608 321.183 250.648C321.183 245.752 324.063 242.2 328.191 242.2C330.655 242.2 333.023 243.48 333.823 245.208L334.207 242.616H337.279V256.888C337.279 262.584 334.495 265.688 329.119 265.688ZM329.183 256.056C332.063 256.056 333.631 254.072 333.631 250.616C333.631 247 332.063 245.208 329.215 245.208C326.335 245.208 324.959 247 324.959 250.68C324.959 254.168 326.335 256.056 329.183 256.056ZM340.696 259V242.616H343.768L344.152 245.016C345.176 243.16 346.872 242.2 349.528 242.2C353.72 242.2 355.416 244.6 355.416 249.208V259H351.672V249.4C351.672 246.456 350.712 245.304 348.28 245.304C345.496 245.304 344.44 246.904 344.44 250.36V259H340.696ZM28.48 290.576C21.76 290.576 17.216 285.968 17.216 278.544C17.216 271.088 21.792 266.544 28.48 266.544C35.072 266.544 39.552 271.152 39.552 278.608C39.552 286 35.072 290.576 28.48 290.576ZM28.48 287.088C32.896 287.088 35.488 284.336 35.488 278.608C35.488 272.816 32.896 270.032 28.448 270.032C23.936 270.032 21.312 272.816 21.312 278.544C21.312 284.304 23.936 287.088 28.48 287.088ZM49.9973 290.416C45.2293 290.416 41.8693 286.896 41.8693 281.744C41.8693 276.592 45.2293 273.2 50.2853 273.2C54.3493 273.2 56.9733 275.376 57.5173 279.216H53.9653C53.5813 277.296 52.2373 276.24 50.1573 276.24C47.2133 276.24 45.6773 278.224 45.6773 281.776C45.6773 285.328 47.2133 287.344 50.0933 287.344C52.2373 287.344 53.5813 286.128 53.9973 284.048H57.5813C57.1013 287.856 54.1573 290.416 49.9973 290.416ZM67.073 290.288C64.001 290.288 62.337 288.88 62.337 285.84V276.56H59.393V273.616H60.545C61.665 273.616 62.465 272.848 62.465 271.728V269.328H66.017V273.616H70.081V276.56H66.017V285.232C66.017 286.64 66.529 287.216 67.873 287.216C68.417 287.216 69.185 287.184 70.081 287.056V290C69.249 290.16 68.001 290.288 67.073 290.288ZM79.8463 290.416C74.9503 290.416 71.4943 286.896 71.4943 281.808C71.4943 276.688 74.9503 273.2 79.8783 273.2C84.7103 273.2 88.1343 276.752 88.1343 281.84C88.1343 286.928 84.7103 290.416 79.8463 290.416ZM79.9103 287.376C82.7583 287.376 84.3583 285.552 84.3583 281.808C84.3583 278.064 82.7583 276.24 79.8783 276.24C76.9663 276.24 75.3023 278.064 75.3023 281.776C75.3023 285.552 76.9663 287.376 79.9103 287.376ZM99.842 290.384C97.538 290.384 95.394 289.136 94.402 287.216L94.018 290H90.946V267.12H94.69V275.952C95.938 274.224 97.762 273.2 99.842 273.2C103.906 273.2 107.106 276.624 107.106 281.808C107.106 286.96 103.906 290.384 99.842 290.384ZM99.074 287.344C101.762 287.344 103.298 285.552 103.298 281.776C103.298 277.968 101.762 276.24 99.042 276.24C96.258 276.24 94.594 278.032 94.594 281.744C94.594 285.488 96.29 287.344 99.074 287.344ZM117.595 290.416C112.54 290.416 109.276 286.96 109.276 281.776C109.276 276.592 112.508 273.2 117.436 273.2C122.332 273.2 125.308 276.432 125.308 281.808V282.8H112.988C113.148 285.872 114.748 287.568 117.564 287.568C119.516 287.568 120.764 286.704 121.244 285.232H124.796C124.092 288.432 121.436 290.416 117.595 290.416ZM113.02 280.272H121.628C121.436 277.328 120.156 276.016 117.372 276.016C114.62 276.016 113.276 277.36 113.02 280.272ZM128.196 290V273.616H131.3L131.684 276.4C132.228 274.928 133.54 273.488 135.492 273.488C136.132 273.488 136.804 273.52 137.412 273.584V276.912C136.772 276.848 135.94 276.848 135.332 276.848C133.38 276.848 131.972 278.288 131.972 281.68V290H128.196ZM148.348 290V288.528C148.348 284.528 150.812 282.384 153.756 280.496L156.38 278.8C158.46 277.488 159.964 276.08 159.964 273.328C159.964 271.152 159.068 269.712 156.316 269.712C153.724 269.712 152.54 271.056 152.156 274.256H148.412C148.892 269.328 151.676 266.544 156.38 266.544C160.764 266.544 163.676 269.072 163.676 273.328C163.676 277.168 161.372 279.408 158.46 281.328L156.028 282.896C154.652 283.792 153.436 284.752 153.084 285.968C152.892 286.512 153.02 286.832 153.628 286.832H163.74V290H148.348ZM166.879 290V288.528C166.879 284.528 169.343 282.384 172.287 280.496L174.911 278.8C176.991 277.488 178.495 276.08 178.495 273.328C178.495 271.152 177.599 269.712 174.847 269.712C172.255 269.712 171.071 271.056 170.687 274.256H166.943C167.423 269.328 170.207 266.544 174.911 266.544C179.295 266.544 182.207 269.072 182.207 273.328C182.207 277.168 179.903 279.408 176.991 281.328L174.559 282.896C173.183 283.792 171.967 284.752 171.615 285.968C171.423 286.512 171.551 286.832 172.159 286.832H182.271V290H166.879ZM186.722 294.928L186.114 292.88C187.426 292.528 188.226 291.44 188.226 290H185.794V285.456H190.85V289.776C190.85 291.44 190.434 292.752 189.57 293.552C188.962 294.16 188.066 294.608 186.722 294.928ZM203.192 290V288.528C203.192 284.528 205.656 282.384 208.6 280.496L211.224 278.8C213.304 277.488 214.808 276.08 214.808 273.328C214.808 271.152 213.912 269.712 211.16 269.712C208.568 269.712 207.384 271.056 207 274.256H203.256C203.736 269.328 206.52 266.544 211.224 266.544C215.608 266.544 218.52 269.072 218.52 273.328C218.52 277.168 216.216 279.408 213.304 281.328L210.872 282.896C209.496 283.792 208.28 284.752 207.928 285.968C207.736 286.512 207.864 286.832 208.472 286.832H218.583V290H203.192ZM229.627 290.576C224.347 290.576 221.403 286.544 221.403 278.512C221.403 270.512 224.315 266.544 229.627 266.544C235.003 266.544 237.883 270.48 237.883 278.512C237.883 286.544 234.939 290.576 229.627 290.576ZM229.627 287.408C232.731 287.408 234.107 285.2 234.107 278.512C234.107 271.856 232.763 269.712 229.627 269.712C226.491 269.712 225.211 271.792 225.211 278.448C225.211 285.104 226.587 287.408 229.627 287.408ZM240.598 290V288.528C240.598 284.528 243.062 282.384 246.006 280.496L248.63 278.8C250.71 277.488 252.214 276.08 252.214 273.328C252.214 271.152 251.318 269.712 248.566 269.712C245.974 269.712 244.79 271.056 244.406 274.256H240.662C241.142 269.328 243.926 266.544 248.63 266.544C253.014 266.544 255.926 269.072 255.926 273.328C255.926 277.168 253.622 279.408 250.71 281.328L248.278 282.896C246.902 283.792 245.686 284.752 245.334 285.968C245.142 286.512 245.27 286.832 245.878 286.832H255.99V290H240.598ZM269.095 290V284.24H257.863V281.68L268.391 267.12H272.775V281.2H276.423V284.24H272.775V290H269.095ZM261.831 281.2H269.095V271.088L261.831 281.2Z" fill="black"/>
<rect x="0.5" y="216.5" width="1919" height="863" stroke="black"/>
</g>
<defs>
<clipPath id="clip0_690_2333">
<rect width="1920" height="1080" fill="white"/>
</clipPath>
</defs>
</svg>
