<svg width="255" height="61" viewBox="0 0 255 61" fill="none" xmlns="http://www.w3.org/2000/svg">
<path d="M0.888 23V0.119999H4.856V23H0.888ZM8.446 23V6.616H11.518L11.902 9.016C12.926 7.16 14.622 6.2 17.278 6.2C21.47 6.2 23.166 8.6 23.166 13.208V23H19.422V13.4C19.422 10.456 18.462 9.304 16.03 9.304C13.246 9.304 12.19 10.904 12.19 14.36V23H8.446ZM33.073 23.288C30.001 23.288 28.337 21.88 28.337 18.84V9.56H25.393V6.616H26.545C27.665 6.616 28.465 5.848 28.465 4.728V2.328H32.017V6.616H36.081V9.56H32.017V18.232C32.017 19.64 32.529 20.216 33.873 20.216C34.417 20.216 35.185 20.184 36.081 20.056V23C35.249 23.16 34.001 23.288 33.073 23.288ZM45.8142 23.416C40.7583 23.416 37.4943 19.96 37.4943 14.776C37.4943 9.592 40.7263 6.2 45.6543 6.2C50.5503 6.2 53.5263 9.432 53.5263 14.808V15.8H41.2063C41.3663 18.872 42.9663 20.568 45.7823 20.568C47.7343 20.568 48.9823 19.704 49.4623 18.232H53.0143C52.3103 21.432 49.6543 23.416 45.8142 23.416ZM41.2383 13.272H49.8463C49.6543 10.328 48.3743 9.016 45.5903 9.016C42.8383 9.016 41.4943 10.36 41.2383 13.272ZM56.4148 23V6.616H59.5188L59.9028 9.4C60.4468 7.928 61.7588 6.488 63.7108 6.488C64.3508 6.488 65.0228 6.52 65.6308 6.584V9.912C64.9908 9.848 64.1588 9.848 63.5508 9.848C61.5988 9.848 60.1908 11.288 60.1908 14.68V23H56.4148ZM68.3523 23V6.616H71.4243L71.8083 9.016C72.8323 7.16 74.5283 6.2 77.1843 6.2C81.3763 6.2 83.0723 8.6 83.0723 13.208V23H79.3283V13.4C79.3283 10.456 78.3683 9.304 75.9363 9.304C73.1523 9.304 72.0963 10.904 72.0963 14.36V23H68.3523ZM91.6293 23.448C88.3653 23.448 86.1253 21.464 86.1253 18.584C86.1253 17.112 86.7013 15.832 87.7253 15C88.7493 14.168 90.4453 13.592 92.6853 13.304L96.0453 12.888C97.0693 12.728 97.5493 12.312 97.5493 11.32C97.5493 9.816 96.4933 9.016 94.1892 9.016C91.8213 9.016 90.7013 9.976 90.4773 11.768H86.7333C87.2133 8.28 89.9653 6.2 94.2853 6.2C98.7013 6.2 100.909 8.312 100.909 12.536V18.744C100.909 19.672 101.197 19.992 101.901 19.992H102.829V23H100.397C98.8613 23 97.9013 21.752 97.8373 19.832C96.8773 22.04 94.4773 23.448 91.6293 23.448ZM92.5573 20.568C95.9493 20.568 97.4213 18.52 97.4213 16.28V15.096C95.7893 15.224 94.4133 15.352 93.1333 15.576C90.5093 15.992 89.7413 16.888 89.7413 18.232C89.7413 19.768 90.6373 20.568 92.5573 20.568ZM105.727 23V0.119999H109.471V23H105.727ZM121.982 23V0.119999H131.038C135.902 0.119999 139.742 1.88 139.742 7.16C139.742 12.504 135.646 14.552 130.718 14.552H125.95V23H121.982ZM125.95 11.256H131.87C134.686 11.256 135.838 10.008 135.838 7.288C135.838 4.664 134.814 3.512 131.998 3.512H125.95V11.256ZM142.29 23V6.616H145.394L145.778 9.4C146.322 7.928 147.634 6.488 149.586 6.488C150.226 6.488 150.898 6.52 151.506 6.584V9.912C150.866 9.848 150.034 9.848 149.426 9.848C147.474 9.848 146.066 11.288 146.066 14.68V23H142.29ZM161.095 23.416C156.04 23.416 152.776 19.96 152.776 14.776C152.776 9.592 156.008 6.2 160.936 6.2C165.832 6.2 168.808 9.432 168.808 14.808V15.8H156.488C156.648 18.872 158.248 20.568 161.064 20.568C163.016 20.568 164.264 19.704 164.744 18.232H168.296C167.592 21.432 164.936 23.416 161.095 23.416ZM156.52 13.272H165.128C164.936 10.328 163.656 9.016 160.872 9.016C158.12 9.016 156.776 10.36 156.52 13.272ZM175.742 23L169.854 6.616H173.95L178.078 19.704H178.11L182.302 6.616H186.206L180.382 23H175.742ZM188.352 23V6.616H192.096V23H188.352ZM188.064 3.96V0.216H192.256V3.96H188.064ZM203.189 23.416C198.133 23.416 194.869 19.96 194.869 14.776C194.869 9.592 198.101 6.2 203.029 6.2C207.925 6.2 210.901 9.432 210.901 14.808V15.8H198.581C198.741 18.872 200.341 20.568 203.157 20.568C205.109 20.568 206.357 19.704 206.837 18.232H210.389C209.685 21.432 207.029 23.416 203.189 23.416ZM198.613 13.272H207.221C207.029 10.328 205.749 9.016 202.965 9.016C200.213 9.016 198.869 10.36 198.613 13.272ZM216.68 23L212.104 6.616H215.72L218.824 19.32H218.856L222.28 6.616H226.344L229.736 19.32H229.768L232.872 6.616H236.456L231.912 23H227.656L224.328 10.584H224.296L220.936 23H216.68ZM8.088 54.576C3.288 54.576 0.344 51.728 0.28 46.928H4.248C4.248 49.776 5.592 51.152 8.088 51.152C10.68 51.152 11.832 49.84 11.832 47.152V31.12H15.8V46.896C15.8 51.664 12.952 54.576 8.088 54.576ZM24.5355 54.448C21.2715 54.448 19.0315 52.464 19.0315 49.584C19.0315 48.112 19.6075 46.832 20.6315 46C21.6555 45.168 23.3515 44.592 25.5915 44.304L28.9515 43.888C29.9755 43.728 30.4555 43.312 30.4555 42.32C30.4555 40.816 29.3995 40.016 27.0955 40.016C24.7275 40.016 23.6075 40.976 23.3835 42.768H19.6395C20.1195 39.28 22.8715 37.2 27.1915 37.2C31.6075 37.2 33.8155 39.312 33.8155 43.536V49.744C33.8155 50.672 34.1035 50.992 34.8075 50.992H35.7355V54H33.3035C31.7675 54 30.8075 52.752 30.7435 50.832C29.7835 53.04 27.3835 54.448 24.5355 54.448ZM25.4635 51.568C28.8555 51.568 30.3275 49.52 30.3275 47.28V46.096C28.6955 46.224 27.3195 46.352 26.0395 46.576C23.4155 46.992 22.6475 47.888 22.6475 49.232C22.6475 50.768 23.5435 51.568 25.4635 51.568ZM38.6335 54V37.616H41.7055L42.0895 40.016C43.1135 38.16 44.8095 37.2 47.4655 37.2C51.6575 37.2 53.3535 39.6 53.3535 44.208V54H49.6095V44.4C49.6095 41.456 48.6495 40.304 46.2175 40.304C43.4335 40.304 42.3775 41.904 42.3775 45.36V54H38.6335ZM62.6465 54.416C58.4545 54.416 56.7585 52.048 56.7585 47.28V37.616H60.5025V47.152C60.5025 50.128 61.4625 51.312 63.8945 51.312C66.5185 51.312 67.7345 49.808 67.7345 46.448V37.616H71.4785V54H68.4065L68.0225 51.632C66.9665 53.456 65.3025 54.416 62.6465 54.416ZM80.0355 54.448C76.7715 54.448 74.5315 52.464 74.5315 49.584C74.5315 48.112 75.1075 46.832 76.1315 46C77.1555 45.168 78.8515 44.592 81.0915 44.304L84.4515 43.888C85.4755 43.728 85.9555 43.312 85.9555 42.32C85.9555 40.816 84.8995 40.016 82.5955 40.016C80.2275 40.016 79.1075 40.976 78.8835 42.768H75.1395C75.6195 39.28 78.3715 37.2 82.6915 37.2C87.1075 37.2 89.3155 39.312 89.3155 43.536V49.744C89.3155 50.672 89.6035 50.992 90.3075 50.992H91.2355V54H88.8035C87.2675 54 86.3075 52.752 86.2435 50.832C85.2835 53.04 82.8835 54.448 80.0355 54.448ZM80.9635 51.568C84.3555 51.568 85.8275 49.52 85.8275 47.28V46.096C84.1955 46.224 82.8195 46.352 81.5395 46.576C78.9155 46.992 78.1475 47.888 78.1475 49.232C78.1475 50.768 79.0435 51.568 80.9635 51.568ZM94.1335 54V37.616H97.2375L97.6215 40.4C98.1655 38.928 99.4775 37.488 101.43 37.488C102.07 37.488 102.742 37.52 103.35 37.584V40.912C102.71 40.848 101.878 40.848 101.27 40.848C99.3175 40.848 97.9095 42.288 97.9095 45.68V54H94.1335ZM108.215 60.624C107.095 60.624 106.263 60.528 105.591 60.4V57.456C106.679 57.552 107.543 57.552 108.055 57.552C109.271 57.552 109.879 56.912 110.423 55.632L111.351 53.264L104.823 37.616H108.695L113.175 49.008H113.207L117.719 37.616H121.463L113.559 56.432C112.375 59.28 110.647 60.624 108.215 60.624ZM137.65 54V38.32H132.21V35.408H134.034C136.882 35.408 137.97 34.352 137.97 32.016V31.12H141.394V54H137.65ZM155.032 54.576C150.2 54.576 147.16 51.92 146.776 47.696H150.584C150.936 50.224 152.28 51.504 155.032 51.504C157.88 51.504 159.192 50.128 159.192 47.472C159.192 44.848 157.848 43.536 155.128 43.504L152.6 43.472V40.592L154.168 40.528C157.048 40.4 158.264 39.344 158.264 36.944C158.264 34.736 157.112 33.616 154.552 33.616C151.672 33.616 150.744 35.088 150.552 37.808H146.808C147.224 33.104 149.944 30.544 154.648 30.544C159.064 30.544 161.976 32.88 161.976 36.528C161.976 38.928 160.728 40.912 158.616 41.616V41.68C161.08 42.096 162.936 44.432 162.936 47.6C162.936 51.76 159.768 54.576 155.032 54.576ZM165.972 58.928L165.364 56.88C166.676 56.528 167.476 55.44 167.476 54H165.044V49.456H170.1V53.776C170.1 55.44 169.684 56.752 168.82 57.552C168.212 58.16 167.316 58.608 165.972 58.928ZM182.442 54V52.528C182.442 48.528 184.906 46.384 187.85 44.496L190.474 42.8C192.554 41.488 194.058 40.08 194.058 37.328C194.058 35.152 193.162 33.712 190.41 33.712C187.818 33.712 186.634 35.056 186.25 38.256H182.506C182.986 33.328 185.77 30.544 190.474 30.544C194.858 30.544 197.77 33.072 197.77 37.328C197.77 41.168 195.466 43.408 192.554 45.328L190.122 46.896C188.746 47.792 187.53 48.752 187.178 49.968C186.986 50.512 187.114 50.832 187.722 50.832H197.833V54H182.442ZM208.877 54.576C203.597 54.576 200.653 50.544 200.653 42.512C200.653 34.512 203.565 30.544 208.877 30.544C214.253 30.544 217.133 34.48 217.133 42.512C217.133 50.544 214.189 54.576 208.877 54.576ZM208.877 51.408C211.981 51.408 213.357 49.2 213.357 42.512C213.357 35.856 212.013 33.712 208.877 33.712C205.741 33.712 204.461 35.792 204.461 42.448C204.461 49.104 205.837 51.408 208.877 51.408ZM219.848 54V52.528C219.848 48.528 222.312 46.384 225.256 44.496L227.88 42.8C229.96 41.488 231.464 40.08 231.464 37.328C231.464 35.152 230.568 33.712 227.816 33.712C225.224 33.712 224.04 35.056 223.656 38.256H219.912C220.392 33.328 223.176 30.544 227.88 30.544C232.264 30.544 235.176 33.072 235.176 37.328C235.176 41.168 232.872 43.408 229.96 45.328L227.528 46.896C226.152 47.792 224.936 48.752 224.584 49.968C224.392 50.512 224.52 50.832 225.128 50.832H235.24V54H219.848ZM246.635 54.576C242.059 54.576 238.891 51.952 238.315 47.888H242.219C242.731 50.128 244.203 51.408 246.699 51.408C249.547 51.408 251.019 49.712 251.019 46.608C251.019 43.504 249.547 41.776 246.731 41.776C244.747 41.776 243.403 42.736 242.571 44.24L238.955 43.952L241.067 31.12H253.451V34.352H243.787L242.763 40.624C243.787 39.536 245.451 38.768 247.435 38.768C251.723 38.768 254.699 41.904 254.699 46.576C254.699 51.44 251.531 54.576 246.635 54.576Z" fill="black"/>
</svg>
